<svg width="16" height="16" viewBox="0 0 16 16" fill="none" xmlns="http://www.w3.org/2000/svg">
<path d="M1.07102 2.99494L6.21822 8.14214L1.07102 13.2893C0.547864 13.8125 0.539426 14.6816 1.07102 15.2132C1.60262 15.7448 2.47174 15.7364 2.99489 15.2132L8.14209 10.066L13.2893 15.2132C13.8124 15.7364 14.6816 15.7448 15.2132 15.2132C15.7448 14.6816 15.7363 13.8125 15.2132 13.2893L10.066 8.14214L15.2132 2.99494C15.7363 2.47178 15.7448 1.60266 15.2132 1.07107C14.6816 0.539472 13.8124 0.54791 13.2893 1.07107L8.14209 6.21826L2.99489 1.07107C2.47174 0.54791 1.60262 0.539472 1.07102 1.07107C0.539426 1.60266 0.547864 2.47178 1.07102 2.99494Z" fill="#1C1C1E"/>
</svg>
