<svg
              width="46"
              height="45"
              viewBox="0 0 46 45"
              fill="none"
              xmlns="http://www.w3.org/2000/svg"
            >
              <g clip-path="url(#clip0_91_197)">
                <path
                  d="M21.2929 0.0615311C17.8878 0.377937 15.3542 1.08106 12.4882 2.50489C9.09214 4.20118 6.04644 6.87305 3.81831 10.1074C2.88394 11.4785 1.73394 13.79 1.1769 15.4248C0.73667 16.7432 0.377295 18.2461 0.16167 19.7314C0.00893555 20.7686 0.00893555 24.2314 0.16167 25.2686C0.539014 27.8613 1.23979 30.1289 2.33589 32.2998C3.56675 34.7607 4.77964 36.4131 6.77417 38.3731C8.75972 40.3066 10.4757 41.5107 12.8925 42.6709C14.5816 43.4795 15.6687 43.875 17.3847 44.2969C21.8769 45.4043 26.3871 45.1934 30.7714 43.6729C32.1101 43.207 34.4281 42.0732 35.623 41.291C38.3093 39.542 40.771 37.0723 42.532 34.3652C43.1789 33.3721 44.221 31.2627 44.6433 30.0938C46.7546 24.2754 46.3863 18.0352 43.6101 12.5772C42.496 10.3799 41.2472 8.64845 39.4953 6.88184C37.5546 4.91309 35.65 3.55958 33.1074 2.32911C30.448 1.04591 27.9683 0.35157 25.0214 0.0878983C24.105 0.00879669 22.0296 -0.00878143 21.2929 0.0615311ZM24.0242 11.0742C24.2039 11.1973 24.4644 11.4522 24.5992 11.6367L24.8417 11.9795L24.8867 16.2949L24.9316 20.6104L29.3429 20.6543L33.7542 20.6982L34.1046 20.9356C34.2933 21.0674 34.5539 21.3223 34.6796 21.5068C34.8683 21.7793 34.9042 21.9287 34.9042 22.5C34.9042 23.0713 34.8683 23.2207 34.6796 23.4932C34.5539 23.6777 34.2933 23.9326 34.1046 24.0645L33.7542 24.3018L29.3429 24.3457L24.9316 24.3897L24.8867 28.7051L24.8417 33.0205L24.5992 33.3633C24.4644 33.5479 24.2039 33.8027 24.0152 33.9258C23.7367 34.1104 23.5839 34.1455 23 34.1455C22.416 34.1455 22.2632 34.1104 21.9847 33.9258C21.796 33.8027 21.5355 33.5479 21.4007 33.3633L21.1582 33.0205L21.1132 28.7051L21.0683 24.3897L16.657 24.3457L12.2457 24.3018L11.8953 24.0645C11.3382 23.6777 11.1046 23.2734 11.0687 22.5967C11.0328 21.876 11.2753 21.3574 11.8503 20.9619L12.2367 20.6982L16.648 20.6543L21.0683 20.6104L21.1132 16.2861L21.1582 11.9707L21.4277 11.5928C21.832 11.0303 22.3621 10.793 23.0988 10.8281C23.548 10.8545 23.7726 10.916 24.0242 11.0742Z"
                  fill="black"
                ></path>
              </g>
              <defs>
                <clipPath id="clip0_91_197">
                  <rect width="46" height="45" fill="white"></rect>
                </clipPath>
              </defs>
            </svg>