<svg
                class="delete-icon"
                width="41"
                height="41"
                viewBox="0 0 41 41"
                fill="none"
                xmlns="http://www.w3.org/2000/svg"
              >
                <path
                  d="M15.4631 0.0880852C14.8465 0.208202 14.0057 0.66465 13.5413 1.1291C12.7645 1.90586 12.4202 2.89883 12.4122 4.34024V4.96484H9.99381C7.26315 4.96484 6.66256 5.02891 5.94186 5.36523C5.29322 5.66953 4.51647 6.43828 4.22018 7.0709C3.54752 8.49629 3.8358 10.1459 4.94088 11.243C5.32526 11.6273 6.23014 12.1719 6.47838 12.1719C6.54244 12.1719 6.56647 15.5512 6.58248 24.5199L6.60651 36.876L6.82272 37.5166C7.12701 38.4055 7.55943 39.0861 8.16803 39.6707C8.80065 40.2633 9.46529 40.6316 10.2981 40.8398C10.8987 40.992 11.219 41 20.5001 41C29.7811 41 30.1014 40.992 30.702 40.8398C32.6479 40.3434 34.0493 38.7258 34.3536 36.6197C34.4016 36.2834 34.4337 31.5027 34.4337 24.1275V12.1879L34.7379 12.0838C35.8831 11.7154 36.876 10.4902 37.0842 9.20898C37.3004 7.85566 36.6278 6.34219 35.4667 5.59746C34.5938 5.04492 34.4577 5.0209 31.3827 4.98086L28.612 4.94883L28.5639 4.01191C28.5079 2.97891 28.3397 2.37832 27.9473 1.75371C27.4108 0.920898 26.4419 0.264259 25.4729 0.0800781C24.9444 -0.0160141 15.9756 -0.0160141 15.4631 0.0880852ZM25.585 2.09805C26.3057 2.49043 26.594 3.04297 26.6501 4.14004L26.6901 4.96484H20.5001H14.318L14.3421 4.1C14.3741 3.33926 14.3981 3.20312 14.5983 2.8668C14.7184 2.6586 14.9266 2.41035 15.0628 2.31426C15.6153 1.92188 15.5913 1.92188 20.6202 1.9459C24.8483 1.96191 25.3688 1.97793 25.585 2.09805ZM34.2335 7.10293C34.6419 7.31914 34.8741 7.56738 35.0422 7.96777C35.3465 8.70449 35.0903 9.59336 34.4417 10.0498L34.0973 10.29L20.6762 10.3141C11.2991 10.3301 7.15904 10.3141 6.95084 10.25C6.15006 10.0178 5.63756 9.09688 5.84576 8.25605C5.99791 7.62344 6.5024 7.12695 7.16705 6.95879C7.30318 6.92676 13.3731 6.91074 20.6602 6.91074L33.9131 6.92676L34.2335 7.10293ZM32.4958 24.0635C32.5118 32.0953 32.4878 36.0111 32.4317 36.3955C32.2635 37.5006 31.687 38.3174 30.7661 38.7738L30.2296 39.0381L20.7083 39.0621C10.3782 39.0861 10.6505 39.0941 9.95377 38.6537C9.29713 38.2373 8.7526 37.4285 8.57643 36.6117C8.51236 36.3074 8.48834 32.776 8.48834 24.2156V12.252L20.484 12.268L32.4717 12.292L32.4958 24.0635Z"
                  fill="black"
                ></path>
                <path
                  d="M14.1899 15.1268C14.0617 15.2629 13.9336 15.4791 13.9016 15.6232C13.8776 15.7594 13.8535 19.9635 13.8535 24.9603C13.8535 34.6418 13.8455 34.3455 14.2299 34.6978C14.4781 34.9141 14.9026 34.9541 15.2389 34.7939C15.8074 34.5217 15.7754 35.1703 15.7754 24.8643C15.7754 14.8145 15.7994 15.327 15.343 15.0227C15.2309 14.9506 14.9826 14.8945 14.7824 14.8945C14.4942 14.8945 14.382 14.9426 14.1899 15.1268Z"
                  fill="black"
                ></path>
                <path
                  d="M19.9235 15.0787C19.8114 15.1748 19.6753 15.335 19.6272 15.4311C19.5632 15.5512 19.5391 18.3219 19.5391 24.8643C19.5391 35.1703 19.5071 34.5217 20.0757 34.7939C20.412 34.9541 20.8364 34.9141 21.0847 34.6978C21.469 34.3455 21.461 34.6418 21.461 24.9603C21.461 19.9635 21.437 15.7594 21.413 15.6232C21.3809 15.4791 21.2528 15.2629 21.1247 15.1268C20.8204 14.8225 20.2518 14.7984 19.9235 15.0787Z"
                  fill="black"
                ></path>
                <path
                  d="M25.4969 15.1668L25.2246 15.4391V24.8162C25.2246 32.8801 25.2406 34.2334 25.3447 34.4256C25.4648 34.6738 25.8973 34.9141 26.2096 34.9141C26.5059 34.9141 26.9303 34.5857 27.0424 34.2734C27.1705 33.9051 27.1865 16.0477 27.0664 15.5992C26.9463 15.1668 26.5779 14.8945 26.1295 14.8945C25.8252 14.8945 25.7291 14.9346 25.4969 15.1668Z"
                  fill="black"
                ></path>
              </svg>