              <svg
                class="edit-icon"
                viewBox="0 0 50 52"
                fill="none"
                xmlns="http://www.w3.org/2000/svg"
              >
                <path
                  d="M40.1074 4.57031C39.7949 4.69219 39.3555 4.89531 39.1309 5.04766C38.9062 5.18984 37.3633 6.71328 35.6934 8.43984L32.666 11.5781L35.7715 14.7977L38.877 18.0273L41.9336 14.8281C44.7949 11.832 45.0098 11.5781 45.3711 10.8266C45.7422 10.0242 45.752 9.99375 45.752 8.89687C45.7422 7.97266 45.7031 7.66797 45.5273 7.21094C45.0977 6.08359 44.1406 5.08828 43.0664 4.65156C42.2754 4.33672 40.8594 4.29609 40.1074 4.57031Z"
                  fill="black"
                ></path>
                <path
                  d="M23.8477 20.7492C19.707 25.0555 16.3086 28.6406 16.3086 28.6914C16.3086 28.8234 22.2852 35.0391 22.4121 35.0391C22.5391 35.0391 37.5977 19.3781 37.5977 19.2461C37.5977 19.1141 31.6211 12.8984 31.4941 12.8984C31.4355 12.8984 27.998 16.4328 23.8477 20.7492Z"
                  fill="black"
                ></path>
                <path
                  d="M7.25586 13.7617C6.04492 14.107 5.17578 14.8586 4.61914 16.0266L4.24805 16.7984V30.6109V44.4336L4.47266 45.0227C4.80469 45.8555 5.69336 46.8305 6.5332 47.257L7.17773 47.582H20.5176H33.8477L34.5898 47.1961C35.7715 46.5969 36.582 45.5 36.8164 44.1898C36.875 43.8445 36.9141 40.2594 36.9141 34.5109V25.3703L36.6309 25.0758C36.2598 24.7 35.8301 24.6797 35.498 25.0352L35.2539 25.2789V34.4602C35.2539 44.525 35.2734 44.2609 34.668 45.0125C34.5117 45.2156 34.1504 45.5 33.8672 45.6422L33.3594 45.9063H20.6152C11.748 45.9063 7.74414 45.8758 7.48047 45.7945C6.96289 45.6422 6.13281 44.7789 5.97656 44.2203C5.88867 43.8953 5.85938 40.6656 5.85938 30.5602V17.3164L6.09375 16.7984C6.2207 16.5141 6.49414 16.1383 6.69922 15.9656C7.46094 15.3055 7.05078 15.3359 16.7969 15.3359H25.6543L25.918 15.0719C26.2598 14.7063 26.25 14.2898 25.8887 13.9039L25.6055 13.6094L16.6797 13.6195C9.31641 13.6195 7.67578 13.65 7.25586 13.7617Z"
                  fill="black"
                ></path>
                <path
                  d="M13.9844 33.993C13.2715 36.1055 12.6855 37.9133 12.6953 38.0148C12.6953 38.2688 13.2227 38.7969 13.4668 38.7969C13.623 38.7969 20.8789 36.207 20.9668 36.1156C20.9766 36.1055 19.707 34.7648 18.1348 33.1297L15.2832 30.1641L13.9844 33.993Z"
                  fill="black"
                ></path>
              </svg>