<svg width="31" height="24" viewBox="0 0 31 18" fill="none" xmlns="http://www.w3.org/2000/svg">
<path d="M14.499 12.9962L14.4958 12.9965C14.1471 13.0202 13.85 12.7566 13.8295 12.4197L13.8293 12.4159C13.8058 12.0725 14.0674 11.7744 14.4093 11.7538L14.4093 11.7538L14.416 11.7533L14.7949 11.7254C17.4263 11.5525 19.4692 9.37129 19.4692 6.74531C19.4692 3.98325 17.2263 1.75 14.4591 1.75H6.92514C4.15903 1.75 1.91509 3.98319 1.91509 6.74531C1.91509 9.37142 3.95953 11.5525 6.58941 11.7254L6.96828 11.7533L6.96827 11.7534L6.97494 11.7538C7.31685 11.7744 7.57849 12.0725 7.55498 12.4159L7.55475 12.4197C7.53426 12.7566 7.23716 13.0202 6.8885 12.9965L6.88531 12.9963L6.50657 12.973C6.50624 12.9729 6.50592 12.9729 6.5056 12.9729C3.21324 12.7553 0.657715 10.0289 0.657715 6.74531C0.657715 3.29646 3.46141 0.5 6.92514 0.5H14.4591C17.9233 0.5 20.7266 3.29643 20.7266 6.74531C20.7266 10.0289 18.1719 12.7553 14.8786 12.9729C14.8783 12.9729 14.878 12.9729 14.8777 12.973L14.499 12.9962ZM15.8647 5.00392L15.8647 5.00396L15.871 5.00354C16.2196 4.97984 16.5167 5.24337 16.5372 5.58035L16.5375 5.58412C16.561 5.9275 16.2993 6.22557 15.9574 6.24622L15.9574 6.2462L15.9526 6.24654L15.6201 6.26988C15.6199 6.26989 15.6197 6.2699 15.6195 6.26992C12.9886 6.44714 10.9446 8.62297 10.9446 11.2547C10.9446 14.0167 13.1875 16.25 15.9547 16.25H23.4886C26.2558 16.25 28.4987 14.0167 28.4987 11.2547C28.4987 8.6287 26.4558 6.44752 23.8244 6.27464C23.8237 6.27459 23.8229 6.27455 23.8222 6.2745L23.4455 6.24667L23.4455 6.24662L23.4388 6.24622C23.0969 6.22557 22.8353 5.9275 22.8588 5.58412L22.859 5.58035C22.8795 5.24337 23.1766 4.97984 23.5253 5.00355L23.5285 5.00374L23.9072 5.02704C23.9076 5.02707 23.908 5.02709 23.9083 5.02711C27.2015 5.24477 29.7561 7.97113 29.7561 11.2547C29.7561 14.7036 26.9528 17.5 23.4886 17.5H15.9547C12.4905 17.5 9.68722 14.7036 9.68722 11.2547C9.68722 7.97165 12.2411 5.2454 15.5291 5.02251L15.8647 5.00392Z" fill="black" stroke="black"/>
</svg>
