<svg width="25" height="24" viewBox="0 0 25 24" fill="none" xmlns="http://www.w3.org/2000/svg">
<g clip-path="url(#clip0_287_320)">
<path d="M3.25635 5.25C2.84385 5.25 2.50635 5.5875 2.50635 6V7.03594L10.5923 13.6734C11.5626 14.4703 12.9548 14.4703 13.9251 13.6734L22.0063 7.03594V6C22.0063 5.5875 21.6688 5.25 21.2563 5.25H3.25635ZM2.50635 9.94687V18C2.50635 18.4125 2.84385 18.75 3.25635 18.75H21.2563C21.6688 18.75 22.0063 18.4125 22.0063 18V9.94687L15.3501 15.4125C13.5501 16.8891 10.9579 16.8891 9.1626 15.4125L2.50635 9.94687ZM0.256348 6C0.256348 4.34531 1.60166 3 3.25635 3H21.2563C22.911 3 24.2563 4.34531 24.2563 6V18C24.2563 19.6547 22.911 21 21.2563 21H3.25635C1.60166 21 0.256348 19.6547 0.256348 18V6Z" fill="black"/>
</g>
<defs>
<clipPath id="clip0_287_320">
<rect width="24" height="24" fill="white" transform="translate(0.256348)"/>
</clipPath>
</defs>
</svg>
