<svg width="15" height="15" viewBox="0 0 15 15" fill="none" xmlns="http://www.w3.org/2000/svg">
<path d="M14.7725 13.7988L10.8457 9.87305C11.6955 8.83301 12.1644 7.52344 12.1644 6.09375C12.1644 2.72754 9.43525 0 6.06902 0C2.70278 0 0 2.72842 0 6.09375C0 9.45908 2.72886 12.1875 6.06902 12.1875C7.4988 12.1875 8.81048 11.6921 9.84933 10.868L13.7762 14.7937C13.9403 14.9326 14.122 15 14.3007 15C14.4795 15 14.6606 14.9313 14.798 14.794C15.0714 14.5195 15.0714 14.0742 14.7725 13.7988ZM1.40663 6.09375C1.40663 3.50918 3.51013 1.40625 6.09539 1.40625C8.68066 1.40625 10.7842 3.50918 10.7842 6.09375C10.7842 8.67832 8.68066 10.7812 6.09539 10.7812C3.51013 10.7812 1.40663 8.67773 1.40663 6.09375Z" fill="black"/>
</svg>
