<svg width="20" height="24" viewBox="0 0 23 20" fill="none" xmlns="http://www.w3.org/2000/svg">
<path d="M19.8963 5.11169C19.9102 5.32488 19.9102 5.53811 19.9102 5.7513C19.9102 12.2538 15.3735 19.7462 7.08157 19.7462C4.52699 19.7462 2.15391 18.9391 0.157715 17.5381C0.520672 17.5838 0.869621 17.599 1.24654 17.599C3.35438 17.599 5.29476 16.8224 6.84425 15.4975C4.86202 15.4518 3.20085 14.0356 2.6285 12.0863C2.90771 12.132 3.18688 12.1624 3.48006 12.1624C3.88487 12.1624 4.28972 12.1015 4.6666 11.995C2.60062 11.5381 1.05108 9.55839 1.05108 7.16753V7.10664C1.65131 7.47213 2.34934 7.70055 3.08913 7.73097C1.87466 6.8477 1.07901 5.34011 1.07901 3.63452C1.07901 2.72083 1.30232 1.88327 1.6932 1.1523C3.91275 4.13706 7.24906 6.08627 10.9901 6.2995C10.9204 5.93402 10.8785 5.55335 10.8785 5.17263C10.8785 2.46194 12.8886 0.253845 15.3873 0.253845C16.6856 0.253845 17.8581 0.847752 18.6818 1.80714C19.7008 1.59395 20.6779 1.18277 21.5434 0.61933C21.2084 1.76149 20.4965 2.72088 19.5612 3.32997C20.4686 3.22342 21.348 2.94925 22.1576 2.56858C21.5435 3.54316 20.7757 4.41114 19.8963 5.11169Z" fill="black"/>
</svg>
